<svg id="visual" viewBox="0 0 1920 1080" width="1920" height="1080" xmlns="http://www.w3.org/2000/svg" xmlns:xlink="http://www.w3.org/1999/xlink" version="1.1"><rect x="0" y="0" width="1920" height="1080" fill="#001220"></rect><defs><linearGradient id="grad1_0" x1="43.8%" y1="0%" x2="100%" y2="100%"><stop offset="14.444444444444446%" stop-color="#001220" stop-opacity="1"></stop><stop offset="85.55555555555554%" stop-color="#001220" stop-opacity="1"></stop></linearGradient></defs><defs><linearGradient id="grad2_0" x1="0%" y1="0%" x2="56.3%" y2="100%"><stop offset="14.444444444444446%" stop-color="#001220" stop-opacity="1"></stop><stop offset="85.55555555555554%" stop-color="#001220" stop-opacity="1"></stop></linearGradient></defs><g transform="translate(1920, 0)"><path d="M0 756C-31.8 699.4 -63.5 642.9 -100.1 632.1C-136.7 621.4 -178.2 656.4 -212.9 655.3C-247.6 654.1 -275.5 616.8 -295.5 580C-315.5 543.3 -327.6 507.3 -361.5 497.5C-395.4 487.8 -451.1 504.4 -504.9 504.9C-558.7 505.3 -610.6 489.7 -611.6 444.4C-612.6 399.1 -562.7 324.1 -541.7 276C-520.8 228 -528.8 206.8 -575.4 187C-622 167.1 -707.2 148.7 -743.7 117.8C-780.3 86.9 -768.1 43.4 -756 0L0 0Z" fill="#0066FF"></path></g><g transform="translate(0, 1080)"><path d="M0 -756C39.3 -741.4 78.6 -726.7 112.2 -708.2C145.8 -689.6 173.6 -667.1 218.5 -672.4C263.3 -677.7 325.1 -710.9 343.2 -673.6C361.3 -636.3 335.8 -528.5 359.1 -494.3C382.4 -460.1 454.6 -499.6 495 -495C535.4 -490.4 544 -441.6 551.7 -400.9C559.5 -360.1 566.2 -327.2 587.2 -299.2C608.1 -271.1 643.2 -247.8 673.3 -218.8C703.5 -189.7 728.8 -154.9 741.8 -117.5C754.7 -80.1 755.4 -40 756 0L0 0Z" fill="#0066FF"></path></g></svg>